<svg width="24" height="24" viewBox="0 0 24 24" fill="none" xmlns="http://www.w3.org/2000/svg">
<g clip-path="url(#clip0_0_1860)">
<path d="M13.4999 8.25V3.345C14.1937 3.607 14.8238 4.01348 15.3486 4.5375L17.9616 7.152C18.4862 7.67616 18.893 8.30617 19.1549 9H14.2499C14.051 9 13.8602 8.92098 13.7195 8.78033C13.5789 8.63968 13.4999 8.44891 13.4999 8.25ZM19.4999 10.8637V17.25C19.4987 18.2442 19.1032 19.1973 18.4002 19.9003C17.6972 20.6033 16.7441 20.9988 15.7499 21H8.24988C7.25568 20.9988 6.30255 20.6033 5.59954 19.9003C4.89654 19.1973 4.50107 18.2442 4.49988 17.25V6.75C4.50107 5.7558 4.89654 4.80267 5.59954 4.09966C6.30255 3.39666 7.25568 3.00119 8.24988 3L11.6361 3C11.7584 3 11.8791 3.00975 11.9999 3.018V8.25C11.9999 8.84674 12.2369 9.41903 12.6589 9.84099C13.0808 10.2629 13.6531 10.5 14.2499 10.5H19.4819C19.4901 10.6207 19.4999 10.7415 19.4999 10.8637ZM15.5429 13.7332C15.4058 13.5893 15.2171 13.5057 15.0184 13.5008C14.8197 13.4959 14.6272 13.5701 14.4831 13.707L11.7831 16.2803C11.711 16.3528 11.6247 16.4099 11.5297 16.4479C11.4347 16.4859 11.3329 16.504 11.2306 16.5012C11.1284 16.4984 11.0277 16.4747 10.9349 16.4315C10.8422 16.3884 10.7592 16.3267 10.6911 16.2502L9.49938 15.1898C9.42581 15.1242 9.34003 15.0737 9.24696 15.0412C9.15388 15.0088 9.05533 14.995 8.95692 15.0006C8.75818 15.012 8.5721 15.1019 8.43963 15.2505C8.37403 15.3241 8.32357 15.4098 8.29112 15.5029C8.25868 15.596 8.24488 15.6945 8.25052 15.793C8.26191 15.9917 8.35179 16.1778 8.50038 16.3102L9.65838 17.3408C10.0781 17.7606 10.6468 17.9975 11.2405 17.9999C11.8342 18.0023 12.4048 17.77 12.8279 17.3535L15.5166 14.793C15.6605 14.6559 15.7441 14.4673 15.7491 14.2686C15.754 14.0698 15.6798 13.8773 15.5429 13.7332V13.7332Z" fill="#858D9D"/>
</g>
<defs>
<clipPath id="clip0_0_1860">
<rect width="18" height="18" fill="white" transform="translate(3 3)"/>
</clipPath>
</defs>
</svg>
